<?xml version="1.0" encoding="utf-8"?>
<!-- Generator: Adobe Illustrator 28.2.0, SVG Export Plug-In . SVG Version: 6.00 Build 0)  -->
<svg version="1.1" xmlns="http://www.w3.org/2000/svg" xmlns:xlink="http://www.w3.org/1999/xlink" x="0px" y="0px"
	 viewBox="0 0 1263.4 353.3" style="enable-background:new 0 0 1263.4 353.3;" xml:space="preserve">
<style type="text/css">
	.st0{fill:#4F396E;}
	.st1{fill:#FFFFFF;}
</style>
<g id="Calque_1">
	<g>
		<path class="st0" d="M1224.7,347H35.8c-13.4,0-24.4-9.8-24.4-22V27.9c0-12.1,10.8-22,24.4-22h1188.8c13.4,0,24.4,9.8,24.4,22V325
			C1249.1,337.1,1238.1,347,1224.7,347z"/>
		<g>
			<path class="st1" d="M384.1,210.1c0,14.4-5,25.3-14.9,32.7c-9.9,7.4-23.7,11-41.5,11c-6.3,0-12.5-0.6-18.6-1.7s-11.3-2.5-15.6-4
				c-4.3-1.6-8.1-3.1-11.4-4.6c-3.3-1.5-5.9-2.9-7.6-4l-2.4-1.6l14.8-24.2c1.6,1.1,3.7,2.3,6.5,3.8c2.8,1.5,7.9,3.5,15.6,6
				c7.6,2.5,14.6,3.7,21.1,3.7c15,0,22.5-5.6,22.5-16.7c0-4.5-2.6-8.2-7.9-11.1c-5.3-3-11.7-5.4-19.2-7.4c-7.6-2-15.1-4.2-22.7-6.8
				c-7.6-2.6-14-6.5-19.2-11.8c-5.3-5.3-7.9-12-7.9-20c0-13.9,5.2-24.7,15.7-32.2c10.4-7.6,23-11.3,37.5-11.3
				c6.2,0,12.2,0.6,18.2,1.9c6,1.2,11,2.8,15,4.6c4,1.8,7.6,3.7,10.6,5.5c3.1,1.8,5.4,3.3,7,4.5l2.2,2l-14.2,22.9
				c-1.3-1-3.2-2.4-5.6-3.9c-2.4-1.6-7.3-3.7-14.6-6.3c-7.3-2.6-14.4-3.9-21.2-3.9c-7,0-11.9,1.7-14.8,5c-2.9,3.3-4.3,6.9-4.3,10.7
				c0,2.6,1.9,5,5.7,7c3.8,2,8.5,3.7,14.2,5.1c5.6,1.4,11.8,3.2,18.5,5.5c6.7,2.3,12.9,4.9,18.5,7.8c5.6,2.9,10.4,7.1,14.2,12.6
				C382.2,196.3,384.1,202.7,384.1,210.1z"/>
			<path class="st1" d="M455.6,139.3c6.2,0,12,1.5,17.6,4.4c5.6,3,10.1,7.1,13.7,12.5c4.1-5.3,9.3-9.4,15.7-12.4
				c6.4-3,12.7-4.5,19-4.5c10,0,18.8,3.7,26.4,11c7.6,7.4,11.4,17.1,11.4,29.2v0.4v71.3h-29v-59.7c0-17.2-6.3-25.8-18.9-25.8
				c-9.2,0-15.2,3.9-18.1,11.8v2.4v71.3h-28.8v-59.7c0-17.2-6.3-25.8-18.9-25.8c-9.2,0-15.3,4.1-18.3,12.4v73.1h-28.8V141.7h28.8
				v11.8C434.4,144.1,443.8,139.3,455.6,139.3z"/>
			<path class="st1" d="M631.3,139.3c10.6,0,19.6,3.5,26.9,10.5c7.3,7,10.9,18,10.9,33v0.6v67.8h-28.8v-14
				c-8,11-19.6,16.5-34.7,16.5c-8.9,0-16.9-2.7-23.9-8.1c-7-5.4-10.5-12.9-10.5-22.5c0-12.7,4.4-22.4,13.2-29.1
				c8.8-6.6,19.4-9.9,31.9-9.9h24.2v-1.2c0-11.6-5-17.3-15-17.3c-5.1,0-10.2,0.7-15.3,2.2c-5.1,1.4-8.8,2.9-11.3,4.3l-3.7,2.2
				l-10.8-21.1c0.5-0.4,1.2-0.9,2.2-1.5c0.9-0.6,2.9-1.7,6-3.3c3.1-1.6,6.3-3.1,9.8-4.3c3.4-1.2,7.7-2.4,13-3.3
				C620.6,139.8,625.9,139.3,631.3,139.3z M617.5,203.4c-11.6,0-17.3,5.1-17.3,15.4c0,4.2,1.4,7.5,4.2,9.9c2.8,2.4,6.9,3.6,12.1,3.6
				c6.8,0,12.5-3,17-9c4.5-6,6.8-11.7,6.8-17v-3H617.5z"/>
			<path class="st1" d="M751.3,139.3v28.6c-12.2,0-21.2,3.3-26.9,9.9c-5.7,6.6-8.6,14.3-8.6,23v50.4h-28.8V141.7h28.8v15.8
				c3.9-5.6,9-10.1,15.3-13.3C737.3,141,744.1,139.3,751.3,139.3z"/>
			<path class="st1" d="M773.7,112h27.8v29.7h28.4v26.4h-28.4v27.6v0.8v10.2c0,3,0.1,5.6,0.4,7.9c0.3,2.2,0.8,4.5,1.6,6.7
				c0.8,2.2,2,3.9,3.7,5.1c1.7,1.2,3.9,1.8,6.5,1.8c3,0,5.9-0.5,8.7-1.5s4.7-2,5.9-3.1l2-1.4l9.1,20.9c-0.7,0.8-1.7,1.8-3.1,3
				c-1.4,1.2-4.5,2.8-9.3,4.7c-4.8,2-10,3-15.7,3c-6.7,0-12.5-1.1-17.3-3.3c-4.9-2.2-8.6-5-11.1-8.4c-2.6-3.3-4.6-7.7-6-13.2
				c-1.4-5.4-2.3-10.5-2.7-15.2c-0.3-4.7-0.5-10.4-0.5-17.2v-28.4h-17.9v-26.4h17.9V112z"/>
			<path class="st1" d="M850.4,112.4h30.5v111.9h54.2v27h-84.7V112.4z"/>
			<path class="st1" d="M951,105.7c2.9-2.8,6.6-4.1,11-4.1c4.5,0,8.1,1.4,11,4.1c2.9,2.8,4.3,6.5,4.3,11.2c0,4.7-1.4,8.5-4.3,11.2
				c-2.9,2.8-6.6,4.1-11,4.1c-4.5,0-8.1-1.4-11-4.1c-2.9-2.8-4.3-6.5-4.3-11.2C946.7,112.2,948.1,108.4,951,105.7z M947.7,141.7
				h28.8v109.5h-28.8V141.7z"/>
			<path class="st1" d="M1059.4,139.3c10,0,18.8,3.7,26.5,11c7.7,7.4,11.5,17.1,11.5,29.2v0.4v71.3h-28.8v-59.7
				c0-17.2-6.3-25.8-18.9-25.8c-6.2,0-11.5,1.3-16.1,4c-4.5,2.7-7.8,6.4-9.8,11.1v70.3h-28.8V141.7h28.8v15
				c4.2-5.4,9.6-9.6,16.1-12.7C1046.5,140.9,1052.9,139.3,1059.4,139.3z"/>
			<path class="st1" d="M1115.1,102.5h28.8v90.2l39.8-51h33.7l-41.6,49.6l44.1,59.9H1188l-28.4-40.6l-15.8,18.9v21.7h-28.8v-21.7
				V102.5z"/>
		</g>
		<path class="st1" d="M58.1,147.1c22.7-4.8,53.4-7.1,85.2-7.1h0c32.5,0,66.3,2.4,94.1,7.1c-7.9,6.7-16.3,17.6-16.3,33.3v47.2
			c0,0-26.5,47-73.4,68.8c0,0-53.1-31.1-70.6-71v-51C77.1,174.5,76.5,161.1,58.1,147.1L58.1,147.1z M252.1,134.8
			c-68.3-17.9-186.5-6.1-208-1.2c-1.1-12.1-2.4-35,1-56.7c0,0,11.4-5.2,30.4-10.3v10c0,6.9,5.6,12.5,12.5,12.5
			c6.9,0,12.5-5.6,12.5-12.5V61c10.4-1.9,21.9-3.4,34.1-4.2v16.8c0,7.5,6.1,13.7,13.7,13.7s13.6-6.1,13.6-13.7V56.5
			c11,0.4,22.5,1.5,34.2,3.6v16.5c0,6.9,5.6,12.5,12.5,12.5c6.9,0,12.5-5.6,12.5-12.5V65.8c10,2.9,20.1,6.5,30.2,11.1
			C251.2,76.9,254.1,110.2,252.1,134.8z M98.7,196.4c1.2,0.9,2.9,0.7,4-0.5c0.6-0.7,1-1.4,1.6-2.1c4.9-6.3,10.9-11.2,18-14.8
			c10.8-5.3,22.1-6.9,33.9-5.3c13.8,2,25.3,8.1,34.3,18.9c0.9,1,1.6,2.1,2.5,3.2c0.8,0.9,2.1,1.2,3.2,0.8c1-0.4,1.7-1.4,1.8-2.6
			c-0.2-0.6-0.3-1.2-0.7-1.7c-4.9-6.8-10.9-12.4-18.1-16.5c-12-6.9-25-9.3-38.6-7.8c-11,1.2-21.1,5-30,11.7
			c-4.8,3.6-8.9,7.9-12.4,12.8C97.3,193.8,97.5,195.5,98.7,196.4z M143,181.2c-10.5,0.9-19.6,5-27.4,12
			c-6.1,5.6-10.5,12.3-12.5,20.4c-2,7.9-1.6,15.8,0.1,23.6c0.7,3.1,1.7,6.2,2.7,9.3c0.4,1.2,1.3,1.8,2.5,1.9c1.1,0.1,2-0.5,2.5-1.4
			c0.5-0.9,0.4-1.9,0-2.8c-2.2-6.1-3.5-12.5-3.5-18.3c-0.1-6.2,0.9-11.6,2.7-15.7c7.8-17.6,27.5-26.7,46.2-22.7
			c6,1.3,11.4,3.7,16.3,7.4c5.6,4.2,9.8,9.5,12.5,16c1.7,4.1,2.5,8.3,2.7,12.7c0.2,3.5-0.9,6.4-3.4,8.7c-3.7,3.3-8.1,4.2-12.7,2.2
			c-4.5-1.9-6.9-5.4-7.1-10.4c-0.1-1.6-0.4-3.3-0.9-4.9c-3-8.2-12-12.7-20.7-10.4c-6.8,1.8-12.1,7.7-12.5,14.2
			c-0.4,6.3,0.8,12.4,3.4,18.2c2.9,6.6,7.3,11.9,12.9,16.4c4.9,3.9,10.5,6.3,16.5,7.8c1.1,0.3,2.1-0.1,2.8-1c0.7-0.9,0.9-2,0.1-2.9
			c-0.5-0.7-1.4-1.3-2.2-1.5c-3.5-1.1-6.9-2.2-10-4.2c-10-6.2-16.2-15-17.7-26.8c-0.3-2.3-0.4-4.7,0.1-6.9c1-4.9,5.9-8.3,11.2-8.3
			c6.2,0,11.5,4.8,11.6,10.7c0,2.4,0.5,4.8,1.6,6.9c3.2,6.4,9.7,10.1,17.2,9.5c8.7-0.6,15.6-8,15.5-16.7
			c-0.1-10.5-3.7-19.7-10.7-27.5C172.2,184.9,158.8,179.9,143,181.2L143,181.2z M183.1,248.4c-0.8-0.6-1.7-0.6-2.7-0.6
			c-2.7,0.2-5.4,0.5-8.1,0.3c-9-0.7-15.4-5.4-19.6-13.3c-0.5-1-1-2.1-1.3-3.2c1.2-1.1,1.9-2.6,1.9-4.3c0-3.1-2.5-5.7-5.6-5.7h-0.1
			c-0.1,0-0.1,0-0.2,0c0,0-0.1,0-0.1,0c0,0-0.1,0-0.1,0c-2.9,0.3-5.1,2.7-5.1,5.7c0,2.5,1.6,4.6,3.9,5.4c1.3,4.3,3.6,8.2,6.9,11.7
			c6,6.5,13.7,9.4,22.5,9.5c2.3-0.3,4.6-0.5,6.9-0.8c1.2-0.2,1.8-1.1,2.1-2.2C184.4,250,184,249.1,183.1,248.4L183.1,248.4z
			 M116.7,167.4c0.8-0.4,1.6-0.8,2.3-1.2c7.8-3.9,16-6.1,24.7-6.6c10.3-0.6,20.2,1,29.7,5.2c1.8,0.8,3.6,1.7,5.4,2.5
			c1.5,0.7,3.1,0.2,3.8-1.2c0.7-1.4,0.1-3-1.4-3.8c-0.8-0.4-1.7-0.8-2.5-1.2c-6.4-3.1-13.1-5.4-20.2-6.4c-2.3-0.3-4.5-0.5-6.8-0.8
			h-7.4c-0.3,0.1-0.6,0.1-1,0.2c-7.1,0.4-14.1,1.9-20.7,4.5c-2.9,1.1-5.6,2.5-8.4,3.8c-1.4,0.7-1.9,2.4-1.3,3.7
			C113.6,167.5,115.2,168.1,116.7,167.4L116.7,167.4z M135.1,257.3c-3.4-3.5-6.1-7.5-8.4-11.8c-3.4-6.3-4.8-13.2-4.9-20.3
			c-0.1-7.3,2.5-13.5,8-18.2c8.3-7.2,17.8-8.8,28-4.9c7.5,2.8,12.6,8.2,14.9,15.9c-1.2,0.8-2,2-2.3,3.4c-0.7,3,1.2,6,4.3,6.7
			c0.4,0.1,0.8,0.1,1.2,0.1c0.6,0,1.1-0.1,1.7-0.2c1.8-0.6,3.3-2,3.8-3.9c0.7-2.6-0.5-5.4-2.9-6.6c-0.9-3.6-2.4-6.9-4.7-10
			c-6.4-8.6-15.2-12.7-25-13c-8.2,0.1-14.9,2.2-20.7,6.7c-6.8,5.3-10.8,12.2-11.6,20.8c-0.5,5.1,0.2,10.2,1.3,15.2
			c1.7,7.4,5.3,13.8,9.9,19.8c1.7,2.3,3.8,4.3,5.7,6.4c1,1.1,2.7,1.2,3.8,0.1c0,0,0,0,0,0c1.1-1.1,1.2-2.7,0.2-3.9
			C136.6,258.8,135.8,258,135.1,257.3L135.1,257.3z"/>
	</g>
</g>
<g id="Dimensions">
</g>
</svg>
